<svg xmlns="http://www.w3.org/2000/svg" viewBox="0 0 345.72 84.99"><defs><style>.cls-1{fill:red;}</style></defs><title>アセット 2</title><g id="レイヤー_2" data-name="レイヤー 2"><g id="レイヤー_1-2" data-name="レイヤー 1"><path class="cls-1" d="M0,59.18H8.06v2.91a7.89,7.89,0,0,1,7-3.53,9.3,9.3,0,0,1,4.71,1.12,7.38,7.38,0,0,1,3,3.47A9.69,9.69,0,0,1,26,60a9.53,9.53,0,0,1,5.32-1.4,10,10,0,0,1,7,2.35c2.41,2.3,2.58,5.66,2.58,7.45V84.15H32.82V71.5c0-1.29,0-3.53-1.07-4.87a3.69,3.69,0,0,0-2.91-1.35,3.92,3.92,0,0,0-3.14,1.51,8.07,8.07,0,0,0-1.23,4.93V84.15H16.41v-13c0-1.68-.06-3.64-1.29-4.87a3.63,3.63,0,0,0-2.69-1,3.94,3.94,0,0,0-2.8,1c-1.51,1.46-1.57,4.26-1.57,5.1V84.15H0Z"/><path class="cls-1" d="M60.87,59.18V73a5.27,5.27,0,0,0,1.4,4,4.78,4.78,0,0,0,3.36,1.17A5,5,0,0,0,69.05,77a5.46,5.46,0,0,0,1.34-4V59.18h8.07V73.74c0,2.85-.29,5.54-2.8,8C72.8,84.55,68.6,85,65.63,85s-7.22-.44-10.08-3.24c-2.3-2.24-2.74-4.76-2.74-7.51V59.18Z"/><path class="cls-1" d="M105.62,65.56a9.19,9.19,0,0,0-4.43-1.4,3.42,3.42,0,0,0-2.29.73A1.74,1.74,0,0,0,98.39,66a1.29,1.29,0,0,0,.79,1.12,14.63,14.63,0,0,0,2.4.84l2.13.67a10.65,10.65,0,0,1,4.15,2.19,6,6,0,0,1,2,4.76,9.07,9.07,0,0,1-2.58,6.55C104.78,84.6,101.75,85,99.12,85a14.83,14.83,0,0,1-10.25-3.58L92.29,76A14.2,14.2,0,0,0,95,77.83a7.54,7.54,0,0,0,3.36.78,4.5,4.5,0,0,0,2.52-.56,2.11,2.11,0,0,0,.84-1.62,1.66,1.66,0,0,0-.89-1.46,10.78,10.78,0,0,0-2.47-.9l-2-.61a10,10,0,0,1-4-2.3,6.17,6.17,0,0,1-1.79-4.53A7.72,7.72,0,0,1,93,60.86a11,11,0,0,1,7.56-2.52,15.73,15.73,0,0,1,8.29,2.13Z"/><path class="cls-1" d="M128.29,59.18V73a5.31,5.31,0,0,0,1.4,4,4.78,4.78,0,0,0,3.36,1.17A5,5,0,0,0,136.47,77a5.42,5.42,0,0,0,1.34-4V59.18h8.07V73.74c0,2.85-.28,5.54-2.8,8-2.86,2.8-7.06,3.24-10,3.24s-7.22-.44-10.08-3.24c-2.29-2.24-2.74-4.76-2.74-7.51V59.18Z"/><path class="cls-1" d="M166,43.33V62a9.3,9.3,0,0,1,7.78-3.64,12.58,12.58,0,0,1,8.68,3.36,13.32,13.32,0,0,1,3.92,9.85,14,14,0,0,1-3.92,10A11.19,11.19,0,0,1,173.94,85c-4.43,0-6.67-2.07-7.9-3.86v3H158V43.33Zm1.29,23.8a6.44,6.44,0,0,0-1.79,4.59,6.07,6.07,0,0,0,1.84,4.48,6.9,6.9,0,0,0,4.6,1.85,6.19,6.19,0,0,0,4.2-1.74,6.34,6.34,0,0,0,2-4.59,6.47,6.47,0,0,0-2-4.76,6.43,6.43,0,0,0-8.85.17Z"/><path class="cls-1" d="M201.65,43.83a4.71,4.71,0,1,1-4.7,4.71A4.67,4.67,0,0,1,201.65,43.83Zm4,15.35v25h-8.07v-25Z"/><path class="cls-1" d="M237.27,59.18h8.06v25h-8.06v-3A8.31,8.31,0,0,1,229.88,85a11.82,11.82,0,0,1-9.35-3.8,13.19,13.19,0,0,1-3.64-9.36,14.21,14.21,0,0,1,3.86-10.08,12.05,12.05,0,0,1,8.68-3.41A9.36,9.36,0,0,1,237.27,62ZM227,67.07a6.25,6.25,0,0,0-1.85,4.54,6.47,6.47,0,0,0,1.68,4.48,6.61,6.61,0,0,0,4.76,2,5.93,5.93,0,0,0,4.2-1.74,6.63,6.63,0,0,0,.12-9.29,6.76,6.76,0,0,0-4.48-1.74A6.39,6.39,0,0,0,227,67.07Z"/><path class="cls-1" d="M261.8,43.83a4.71,4.71,0,1,1-4.71,4.71A4.67,4.67,0,0,1,261.8,43.83Zm4,15.35v25h-8.06v-25Z"/><path class="cls-1" d="M309.8,84.13H289.4l8-8.72A61.67,61.67,0,0,0,301.76,70a9,9,0,0,0,1.6-4.52,3.75,3.75,0,0,0-1-2.64,3.63,3.63,0,0,0-2.44-.76,3.14,3.14,0,0,0-2.44,1,5.42,5.42,0,0,0-1.12,3.28h-6.16a11.45,11.45,0,0,1,2.76-6.68c1.28-1.36,3.56-2.76,7.36-2.76a9.5,9.5,0,0,1,6.92,2.52,8.92,8.92,0,0,1,2.48,6.4,9.5,9.5,0,0,1-2,5.88,34.33,34.33,0,0,1-4.28,4.59l-2.8,2.68h9.2Z"/><path class="cls-1" d="M317.6,77.49A3.64,3.64,0,1,1,314,81.13,3.6,3.6,0,0,1,317.6,77.49Z"/><path class="cls-1" d="M341.88,82a9.92,9.92,0,0,1-7.16,2.76A9.77,9.77,0,0,1,327.64,82c-2.6-2.56-3.84-6.59-3.84-11.15s1.24-8.68,3.84-11.2a9.77,9.77,0,0,1,7.08-2.76,9.92,9.92,0,0,1,7.16,2.76c2.6,2.52,3.84,6.6,3.84,11.2S344.48,79.41,341.88,82Zm-9.6-18.83c-2,1.92-2.24,5.76-2.24,7.64,0,2.07.36,5.83,2.24,7.67a3.58,3.58,0,0,0,5,0c1.88-1.84,2.24-5.6,2.24-7.67,0-1.88-.28-5.72-2.24-7.64a3.58,3.58,0,0,0-5,0Z"/><path class="cls-1" d="M48.63,1.91h1.11L54.34,15H53.18l-1.45-4.41H46.61L45.12,15H44ZM46.9,9.76h4.54l-.8-2.38c-.54-1.53-1-2.91-1.44-4.5h-.07c-.45,1.59-.9,3-1.42,4.5Z"/><path class="cls-1" d="M60,1.91h1.08V15H60Z"/><path class="cls-1" d="M78.22,1.93c-.07.48-.29,1.83-.5,3,1-.08,1.85-.15,2.3-.15,1.44,0,2.74.47,2.74,2.81A16.78,16.78,0,0,1,81.7,14a2.33,2.33,0,0,1-2.43,1.42,10.71,10.71,0,0,1-2.09-.27l-.15-1a8,8,0,0,0,2.2.36,1.62,1.62,0,0,0,1.71-1,15.9,15.9,0,0,0,.94-5.83c0-1.77-.85-2.13-2-2.13-.52,0-1.39.07-2.34.15a36.21,36.21,0,0,1-3.85,9.74l-.94-.38c1.85-2.5,3.31-6.95,3.87-9.27-1.12.1-2.18.21-2.72.27-.34,0-1,.1-1.4.18l-.11-1c.52,0,.9,0,1.42,0s1.8-.12,3-.21a20.21,20.21,0,0,0,.52-4l1.06.11C78.33,1.37,78.27,1.64,78.22,1.93Zm9.71,7.69-.87.43a22.28,22.28,0,0,0-3.31-6.29l.81-.41A31.59,31.59,0,0,1,87.93,9.62ZM86.59,3.15l-.72.33A16.91,16.91,0,0,0,84.38,1l.7-.3A26.27,26.27,0,0,1,86.59,3.15Zm2-.68-.72.32A15.14,15.14,0,0,0,86.29.31L87,0A25,25,0,0,1,88.54,2.47Z"/><path class="cls-1" d="M95.34,10.28A16.33,16.33,0,0,1,94,14.82a4,4,0,0,0-.72-.36,13,13,0,0,0,1.29-4.34Zm3.22-4.46a14.32,14.32,0,0,1,1.87,3.6l-.72.36a6.46,6.46,0,0,0-.43-1.12l-1.87.11V16.4H96.6V8.8c-1.15.08-2.22.11-3.1.15l-.07-.83,1.11,0C95,7.54,95.48,6.9,96,6.21a16.17,16.17,0,0,0-2.49-2.68L94,3c.2.16.4.34.61.54A25.65,25.65,0,0,0,96.35,0l.79.32A39.68,39.68,0,0,1,95.07,4a13,13,0,0,1,1.37,1.53C97.23,4.32,98,3.06,98.54,2l.79.37a59.79,59.79,0,0,1-3.9,5.67l3.51-.15c-.33-.61-.69-1.26-1.06-1.82Zm.54,4.25a14.56,14.56,0,0,1,1.24,3.49l-.74.23a15.93,15.93,0,0,0-1.18-3.51Zm6.25-6.56V6.63h4.09v.81h-8.7V6.63h3.74V3.51h-4.37V2.7h4.37V0h.87V2.7h4.5v.81Zm-4,6.16h7.59v6.59h-.85v-.92h-5.91v1h-.83Zm.83.81v4h5.91v-4Z"/><path class="cls-1" d="M115.21,14.55l-.54-.76a21.07,21.07,0,0,0,4.61-3.53l.54.69A24.61,24.61,0,0,1,115.21,14.55Zm7.27.11a1.76,1.76,0,0,0,2-1.71c0-1.3-1.33-2.9-2.44-4.18-.38-.42-.89-.9-1.32-1.33l.65-.6c.4.42.85.92,1.24,1.35,1.53,1.68,2.81,3.26,2.81,4.86,0,2.09-1.85,2.45-2.83,2.45a13.61,13.61,0,0,1-2.95-.29l-.13-1A9.48,9.48,0,0,0,122.48,14.66ZM124.55,4.5a18.93,18.93,0,0,0-4-2.3l.52-.67A24.44,24.44,0,0,1,125.42,4l.21.65c-.39.34-1.2.95-1.83,1.4l-.58-.58A11.33,11.33,0,0,0,124.55,4.5ZM127,9l.74-.45A21.19,21.19,0,0,1,131,14l-.82.48A16.91,16.91,0,0,0,127,9Zm2.36-3.24-.7.32a18.66,18.66,0,0,0-1.48-2.5l.67-.31A20.83,20.83,0,0,1,129.38,5.73ZM131.32,5l-.68.35a17.07,17.07,0,0,0-1.53-2.49l.67-.3A19.88,19.88,0,0,1,131.32,5Z"/><path class="cls-1" d="M136.92,11.87l.74-.67a35.89,35.89,0,0,1,4.12,4l-.81.69A28.48,28.48,0,0,0,136.92,11.87Z"/><path class="cls-1" d="M165.52,13.67A29.8,29.8,0,0,0,163,11.31v5h-.85V10.89a15.7,15.7,0,0,1-3.46,4,3.75,3.75,0,0,0-.63-.63,13.29,13.29,0,0,0,3.84-4.39h-3.48v-.8h3.73V6.91h-3.78V6.14h8.35v.77H163V9.09h3.6v.8H163v.57c.72.54,2.59,2.11,3,2.52Zm1-10.92h-7.83V2h3.53V.05H163V2h3.45ZM160.64,6a10.71,10.71,0,0,0-.79-2.84l.72-.15a10,10,0,0,1,.83,2.79Zm2.86-.2a17.27,17.27,0,0,0,1-2.82l.81.21c-.32,1-.76,2.09-1.1,2.83ZM174.61,7h-2.23v9.25h-.85V7h-3.22v.84c0,2.7-.34,6.14-2.92,8.61a1.84,1.84,0,0,0-.61-.6c2.43-2.28,2.7-5.43,2.7-8V1.53l.78.27A27.59,27.59,0,0,0,173.57.25l.72.65a30.24,30.24,0,0,1-6,1.64V6.18h6.3Z"/><path class="cls-1" d="M186.42,2.25c-.11.5-.22,1.1-.34,1.75a27.49,27.49,0,0,0,3.72-.69v.92a33.34,33.34,0,0,1-3.9.61c-.17.81-.36,1.66-.6,2.47a50.44,50.44,0,0,1-2.79,8.19l-1-.34a38.49,38.49,0,0,0,3-8c.18-.65.36-1.44.54-2.2-.72.06-1.37.09-2,.09s-1.37,0-2-.07l0-.9a15.22,15.22,0,0,0,2.11.13c.63,0,1.33,0,2.11-.09.16-.81.28-1.51.34-1.91A6.33,6.33,0,0,0,185.59.9l1.12.09C186.6,1.33,186.49,1.93,186.42,2.25Zm2.1,10.23c0,.88.46,1.83,3.39,1.83a16.53,16.53,0,0,0,3.4-.34l0,1a24,24,0,0,1-3.39.25c-2.72,0-4.21-.76-4.21-2.52a9.54,9.54,0,0,1,.25-2l.87.09A5.84,5.84,0,0,0,188.52,12.48ZM192,6.36a27.73,27.73,0,0,1,3.1.14l0,.9a22,22,0,0,0-3-.2c-1.05,0-2.14.07-3.24.18V6.5C189.7,6.41,190.83,6.36,192,6.36Z"/><path class="cls-1" d="M207.8,3.85a17.1,17.1,0,0,0,3.06-.72l0,.9a23.1,23.1,0,0,1-3.37.67,31.62,31.62,0,0,1-4,7.56l-.92-.48a25,25,0,0,0,4-7c-.65.05-1.32.07-2,.07s-1.4,0-2,0l-.08-.9a16.21,16.21,0,0,0,2.11.11,19.44,19.44,0,0,0,2.23-.11,12.63,12.63,0,0,0,.63-3.18l1.05.1C208.38,1.57,208.11,2.79,207.8,3.85Zm5,4.27c0,.76.09,2.13.14,3.35a12.31,12.31,0,0,1,3.75,2.21l-.51.8a11.59,11.59,0,0,0-3.2-2.13c0,.42,0,.78,0,1.06,0,1.3-.94,2.4-3,2.4-1.83,0-3.34-.69-3.34-2.36S208.29,11,210,11a8,8,0,0,1,2.07.26c0-1.57-.16-3.46-.19-4.85h.92C212.79,7.13,212.77,7.54,212.79,8.12ZM209.94,15c1.66,0,2.22-.86,2.22-1.82,0-.3,0-.68,0-1.08a7.63,7.63,0,0,0-2.11-.32c-1.47,0-2.5.7-2.5,1.64S208.29,15,209.94,15Zm2.8-10.8.45-.68a24.21,24.21,0,0,1,4.06,2.35l-.54.76A20.37,20.37,0,0,0,212.74,4.16Z"/><path class="cls-1" d="M238.19,9v7.29h-.88V15.16h-12v1.19h-.87V9h.87v5.33h5.45V7.74h-5.63v-6H226V6.9h4.79V.09h.87V6.9h5V1.76h.88v6h-5.85v6.59h5.69V9Z"/><path class="cls-1" d="M253.13.05a21.19,21.19,0,0,0,8.05,6.47,4.31,4.31,0,0,0-.58.74A22.77,22.77,0,0,1,252.75.9a21.57,21.57,0,0,1-7.58,6.43,3.1,3.1,0,0,0-.52-.7A19.76,19.76,0,0,0,252.28.05Zm-7.64,9.1h14.84V10h-8.7c-.7,1.49-1.58,3.33-2.41,4.71,2.5-.07,5.47-.18,8.39-.3a25,25,0,0,0-2.74-2.79l.71-.42a25.27,25.27,0,0,1,4.33,4.78l-.75.48a14.59,14.59,0,0,0-.92-1.28c-4.54.18-9.34.4-12.44.53l-.13-.89c.76,0,1.62,0,2.58-.07A41,41,0,0,0,250.59,10h-5.1Zm11.65-3.46v.83h-8.66V5.69Z"/><path class="cls-1" d="M269,4.12c0,1.1,0,2.94.15,4.52.32,3.26,1.38,5.39,2.77,5.39,1,0,1.87-1.71,2.43-3.73L275,11c-1,3-2.09,4-3.17,4-1.55,0-3.13-1.64-3.62-6.21-.16-1.49-.19-3.74-.19-4.75A8,8,0,0,0,268,2.61l1.13,0C269,3,269,3.69,269,4.12Zm12.82,7.82-.9.38a18.08,18.08,0,0,0-3.07-8.79l.88-.32A18.7,18.7,0,0,1,281.78,11.94Z"/><path class="cls-1" d="M293.21,13.32a2.65,2.65,0,1,1-2.65-2.64A2.65,2.65,0,0,1,293.21,13.32Zm-.7,0a2,2,0,1,0-1.95,1.95A1.94,1.94,0,0,0,292.51,13.32Z"/></g></g></svg>