<?xml version="1.0" encoding="utf-8"?>
<!-- Generator: Adobe Illustrator 23.1.1, SVG Export Plug-In . SVG Version: 6.00 Build 0)  -->
<svg version="1.1" id="レイヤー_1" xmlns="http://www.w3.org/2000/svg" xmlns:xlink="http://www.w3.org/1999/xlink" x="0px"
	 y="0px" viewBox="0 0 685.7 37.9" style="enable-background:new 0 0 685.7 37.9;" xml:space="preserve">
<style type="text/css">
	.st0{fill:url(#SVGID_1_);}
	.st1{fill:url(#SVGID_2_);}
	.st2{fill:url(#SVGID_3_);}
	.st3{fill:url(#SVGID_4_);}
	.st4{fill:url(#SVGID_5_);}
</style>
<title>アセット 1</title>
<g>
	<g id="モニター">
		<linearGradient id="SVGID_1_" gradientUnits="userSpaceOnUse" x1="309.8357" y1="13.1153" x2="345.8" y2="13.1153">
			<stop  offset="0" style="stop-color:#FA8FBF"/>
			<stop  offset="1" style="stop-color:#8AB0FA"/>
		</linearGradient>
		<path class="st0" d="M322.9,26.1c-4.6,0-8.8-2.4-11.2-6.3c-2.4-4-2.5-8.9-0.2-13c3.4-6.3,11.3-8.6,17.6-5.2c2.1,1.1,3.8,2.8,5,4.8
			l11.7,19.4l-22.6,0.4L322.9,26.1z M322.9,3h-0.2c-5.5,0.1-10,4.6-9.9,10.1c0,1.8,0.5,3.6,1.5,5.1c1.8,3,5.1,4.9,8.6,4.9h0.2
			l17.4-0.3l-9-14.9C329.7,4.8,326.4,3,322.9,3z"/>
		<linearGradient id="SVGID_2_" gradientUnits="userSpaceOnUse" x1="339.5" y1="13.0362" x2="375.4277" y2="13.0362">
			<stop  offset="0" style="stop-color:#FA8FBF"/>
			<stop  offset="1" style="stop-color:#8AB0FA"/>
		</linearGradient>
		<path class="st1" d="M362.4,26.1h-0.3l-22.6-0.4l11.7-19.4c3.7-6.2,11.7-8.2,17.9-4.4c6.2,3.7,8.2,11.7,4.4,17.9l0,0
			C371.2,23.7,367,26.1,362.4,26.1z M344.8,22.8l17.4,0.3h0.2c5.6,0,10.1-4.5,10-10.1c0-1.7-0.4-3.4-1.3-4.8
			c-2.7-4.9-8.8-6.6-13.7-3.9c-1.5,0.9-2.8,2.1-3.8,3.6L344.8,22.8z"/>
		<linearGradient id="SVGID_3_" gradientUnits="userSpaceOnUse" x1="311.3236" y1="30.2499" x2="343.7" y2="30.2499">
			<stop  offset="0" style="stop-color:#FA8FBF"/>
			<stop  offset="1" style="stop-color:#8AB0FA"/>
		</linearGradient>
		<path class="st2" d="M312.8,37.9c-0.2,0-0.4-0.1-0.6-0.1c-0.8-0.3-1.1-1.2-0.7-2c6.1-13.4,29.7-13.2,30.7-13.2
			c0.8,0,1.5,0.7,1.5,1.5s-0.7,1.5-1.5,1.5h-0.1c-1.5,0-22.7,0.2-27.9,11.5C313.9,37.6,313.4,37.9,312.8,37.9z"/>
		<linearGradient id="SVGID_4_" gradientUnits="userSpaceOnUse" x1="340.8" y1="30.1999" x2="373.1589" y2="30.1999">
			<stop  offset="0" style="stop-color:#FA8FBF"/>
			<stop  offset="1" style="stop-color:#8AB0FA"/>
		</linearGradient>
		<path class="st3" d="M371.7,37.9c-0.6,0-1.1-0.4-1.4-0.9c-5.3-11.6-27.7-11.5-28-11.5l0,0c-0.8,0-1.5-0.7-1.5-1.5s0.7-1.5,1.5-1.5
			c1,0,24.6-0.2,30.7,13.2c0.4,0.7,0,1.6-0.7,2l0,0C372.1,37.8,371.9,37.9,371.7,37.9z"/>
		<linearGradient id="SVGID_5_" gradientUnits="userSpaceOnUse" x1="0" y1="25" x2="685.7" y2="25">
			<stop  offset="0" style="stop-color:#FA8FBF"/>
			<stop  offset="1" style="stop-color:#8AB0FA"/>
		</linearGradient>
		<rect y="23.5" class="st4" width="685.7" height="3"/>
	</g>
</g>
</svg>
