<svg xmlns="http://www.w3.org/2000/svg" viewBox="0 0 685.65 37.91"><defs><style>.cls-1{fill:red;}</style></defs><title>アセット 1</title><g id="レイヤー_2" data-name="レイヤー 2"><g id="モニター"><path class="cls-1" d="M322.88,26.11a12.91,12.91,0,0,1-11.16-6.32,12.91,12.91,0,0,1-.25-13,13,13,0,0,1,22.6-.42l11.68,19.36-22.61.42ZM322.9,3h-.19a10,10,0,0,0-8.42,15.24,9.93,9.93,0,0,0,8.6,4.87h.19l17.41-.32-9-14.92A10,10,0,0,0,322.9,3Z"/><path class="cls-1" d="M362.39,26.11h-.26l-22.6-.42L351.2,6.32a13.05,13.05,0,1,1,22.36,13.47A12.91,12.91,0,0,1,362.39,26.11Zm-17.61-3.33,17.41.32h.2a10.06,10.06,0,0,0,8.79-14.92,10.05,10.05,0,0,0-17.41-.33Z"/><path class="cls-1" d="M312.81,37.91a1.6,1.6,0,0,1-.63-.14,1.51,1.51,0,0,1-.74-2c6.11-13.39,29.73-13.23,30.74-13.22a1.5,1.5,0,0,1,0,3h-.11c-1.5,0-22.74.21-27.88,11.47A1.5,1.5,0,0,1,312.81,37.91Z"/><path class="cls-1" d="M371.66,37.91A1.5,1.5,0,0,1,370.3,37c-5.31-11.63-27.72-11.48-28-11.47h0a1.5,1.5,0,0,1,0-3c1,0,24.63-.17,30.73,13.22a1.49,1.49,0,0,1-.74,2A1.51,1.51,0,0,1,371.66,37.91Z"/><rect class="cls-1" y="23.47" width="685.65" height="3"/></g></g></svg>