<svg xmlns="http://www.w3.org/2000/svg" xmlns:xlink="http://www.w3.org/1999/xlink" viewBox="0 0 886 442.49"><defs><style>.cls-1{fill:url(#名称未設定グラデーション_9);}.cls-10,.cls-11,.cls-12,.cls-13,.cls-14,.cls-19,.cls-2,.cls-20,.cls-21,.cls-22,.cls-23,.cls-24,.cls-25,.cls-26,.cls-27,.cls-28,.cls-29,.cls-3,.cls-30,.cls-31,.cls-32,.cls-33,.cls-35,.cls-9{fill:none;}.cls-10,.cls-11,.cls-12,.cls-13,.cls-14,.cls-19,.cls-2,.cls-20,.cls-21,.cls-22,.cls-23,.cls-24,.cls-25,.cls-26,.cls-27,.cls-28,.cls-29,.cls-3,.cls-30,.cls-31,.cls-32,.cls-33,.cls-34,.cls-35,.cls-37,.cls-9{stroke-miterlimit:10;}.cls-10,.cls-12,.cls-13,.cls-14,.cls-19,.cls-2,.cls-20,.cls-21,.cls-22,.cls-23,.cls-24,.cls-25,.cls-26,.cls-27,.cls-28,.cls-29,.cls-3,.cls-30,.cls-31,.cls-32,.cls-33,.cls-34{stroke-width:3px;}.cls-2{stroke:url(#名称未設定グラデーション_9-2);}.cls-3{stroke:url(#名称未設定グラデーション_9-3);}.cls-4{fill:url(#名称未設定グラデーション_9-4);}.cls-5{fill:url(#名称未設定グラデーション_9-5);}.cls-6{fill:url(#名称未設定グラデーション_9-6);}.cls-7{fill:url(#名称未設定グラデーション_9-7);}.cls-8{fill:url(#名称未設定グラデーション_9-8);}.cls-11,.cls-9{stroke-width:4px;}.cls-9{stroke:url(#名称未設定グラデーション_9-9);}.cls-10{stroke:url(#名称未設定グラデーション_9-10);}.cls-11{stroke:url(#名称未設定グラデーション_9-11);}.cls-12{stroke:url(#名称未設定グラデーション_9-12);}.cls-13{stroke:url(#名称未設定グラデーション_9-13);}.cls-14{stroke:url(#名称未設定グラデーション_9-14);}.cls-15{fill:url(#名称未設定グラデーション_9-15);}.cls-16{fill:url(#名称未設定グラデーション_9-16);}.cls-17{fill:url(#名称未設定グラデーション_9-17);}.cls-18{fill:url(#名称未設定グラデーション_9-18);}.cls-19{stroke:url(#名称未設定グラデーション_9-19);}.cls-20{stroke:url(#名称未設定グラデーション_9-20);}.cls-21{stroke:url(#名称未設定グラデーション_9-21);}.cls-22{stroke:url(#名称未設定グラデーション_9-22);}.cls-23{stroke:url(#名称未設定グラデーション_9-23);}.cls-24{stroke:url(#名称未設定グラデーション_9-24);}.cls-25{stroke:url(#名称未設定グラデーション_9-25);}.cls-26{stroke:url(#名称未設定グラデーション_9-26);}.cls-27{stroke:url(#名称未設定グラデーション_9-27);}.cls-28{stroke:url(#名称未設定グラデーション_9-28);}.cls-29{stroke:url(#名称未設定グラデーション_9-29);}.cls-30{stroke:url(#名称未設定グラデーション_9-30);}.cls-31{stroke:url(#名称未設定グラデーション_9-31);}.cls-32{stroke:url(#名称未設定グラデーション_9-32);}.cls-33{stroke:url(#名称未設定グラデーション_9-33);}.cls-34,.cls-36{fill:red;}.cls-34,.cls-35{stroke:red;}.cls-35{stroke-width:4.07px;}.cls-37{fill:#fff;stroke:#fff;stroke-width:0.76px;}</style><linearGradient id="名称未設定グラデーション_9" x1="374.61" y1="14.04" x2="396.51" y2="14.04" gradientUnits="userSpaceOnUse"><stop offset="0" stop-color="#fa8fbf"/><stop offset="1" stop-color="#8ab0fa"/></linearGradient><linearGradient id="名称未設定グラデーション_9-2" x1="0" y1="239.99" x2="781" y2="239.99" xlink:href="#名称未設定グラデーション_9"/><linearGradient id="名称未設定グラデーション_9-3" x1="294.5" y1="239.98" x2="486.5" y2="239.98" xlink:href="#名称未設定グラデーション_9"/><linearGradient id="名称未設定グラデーション_9-4" x1="330.96" y1="237.3" x2="346.91" y2="237.3" xlink:href="#名称未設定グラデーション_9"/><linearGradient id="名称未設定グラデーション_9-5" x1="352.13" y1="237.31" x2="367.31" y2="237.31" xlink:href="#名称未設定グラデーション_9"/><linearGradient id="名称未設定グラデーション_9-6" x1="371.11" y1="236.53" x2="395.29" y2="236.53" xlink:href="#名称未設定グラデーション_9"/><linearGradient id="名称未設定グラデーション_9-7" x1="400.46" y1="237.31" x2="424.78" y2="237.31" xlink:href="#名称未設定グラデーション_9"/><linearGradient id="名称未設定グラデーション_9-8" x1="432.8" y1="237.31" x2="446.53" y2="237.31" xlink:href="#名称未設定グラデーション_9"/><linearGradient id="名称未設定グラデーション_9-9" x1="32.3" y1="361.98" x2="50.7" y2="361.98" xlink:href="#名称未設定グラデーション_9"/><linearGradient id="名称未設定グラデーション_9-10" x1="100.93" y1="418.98" x2="114.07" y2="418.98" xlink:href="#名称未設定グラデーション_9"/><linearGradient id="名称未設定グラデーション_9-11" x1="32.3" y1="117.98" x2="50.7" y2="117.98" xlink:href="#名称未設定グラデーション_9"/><linearGradient id="名称未設定グラデーション_9-12" x1="100.93" y1="60.98" x2="114.07" y2="60.98" xlink:href="#名称未設定グラデーション_9"/><linearGradient id="名称未設定グラデーション_9-13" x1="77.5" y1="236.76" x2="251.5" y2="236.76" xlink:href="#名称未設定グラデーション_9"/><linearGradient id="名称未設定グラデーション_9-14" x1="735" y1="239.98" x2="754" y2="239.98" xlink:href="#名称未設定グラデーション_9"/><linearGradient id="名称未設定グラデーション_9-15" x1="108.09" y1="233.72" x2="135.42" y2="233.72" xlink:href="#名称未設定グラデーション_9"/><linearGradient id="名称未設定グラデーション_9-16" x1="142.75" y1="234.08" x2="168.76" y2="234.08" xlink:href="#名称未設定グラデーション_9"/><linearGradient id="名称未設定グラデーション_9-17" x1="176.78" y1="234.09" x2="196.02" y2="234.09" xlink:href="#名称未設定グラデーション_9"/><linearGradient id="名称未設定グラデーション_9-18" x1="204.04" y1="234.09" x2="217.77" y2="234.09" xlink:href="#名称未設定グラデーション_9"/><linearGradient id="名称未設定グラデーション_9-19" x1="402" y1="61.76" x2="597" y2="61.76" xlink:href="#名称未設定グラデーション_9"/><linearGradient id="名称未設定グラデーション_9-20" x1="262" y1="61.76" x2="375" y2="61.76" xlink:href="#名称未設定グラデーション_9"/><linearGradient id="名称未設定グラデーション_9-21" x1="402" y1="418.76" x2="597" y2="418.76" xlink:href="#名称未設定グラデーション_9"/><linearGradient id="名称未設定グラデーション_9-22" x1="548" y1="311.24" x2="581" y2="311.24" xlink:href="#名称未設定グラデーション_9"/><linearGradient id="名称未設定グラデーション_9-23" x1="548" y1="294.74" x2="581" y2="294.74" xlink:href="#名称未設定グラデーション_9"/><linearGradient id="名称未設定グラデーション_9-24" x1="578" y1="302.99" x2="611" y2="302.99" xlink:href="#名称未設定グラデーション_9"/><linearGradient id="名称未設定グラデーション_9-25" x1="579.5" y1="302.99" x2="609" y2="302.99" xlink:href="#名称未設定グラデーション_9"/><linearGradient id="名称未設定グラデーション_9-26" x1="578" y1="239.99" x2="611" y2="239.99" xlink:href="#名称未設定グラデーション_9"/><linearGradient id="名称未設定グラデーション_9-27" x1="548" y1="248.24" x2="581" y2="248.24" xlink:href="#名称未設定グラデーション_9"/><linearGradient id="名称未設定グラデーション_9-28" x1="548" y1="231.74" x2="581" y2="231.74" xlink:href="#名称未設定グラデーション_9"/><linearGradient id="名称未設定グラデーション_9-29" x1="579.5" y1="239.99" x2="609" y2="239.99" xlink:href="#名称未設定グラデーション_9"/><linearGradient id="名称未設定グラデーション_9-30" x1="608" y1="248.24" x2="641" y2="248.24" xlink:href="#名称未設定グラデーション_9"/><linearGradient id="名称未設定グラデーション_9-31" x1="548" y1="176.98" x2="611" y2="176.98" xlink:href="#名称未設定グラデーション_9"/><linearGradient id="名称未設定グラデーション_9-32" x1="578" y1="176.98" x2="581" y2="176.98" xlink:href="#名称未設定グラデーション_9"/><linearGradient id="名称未設定グラデーション_9-33" x1="549.5" y1="176.98" x2="609" y2="176.98" xlink:href="#名称未設定グラデーション_9"/></defs><title>アセット 4</title><g id="レイヤー_2" data-name="レイヤー 2"><g id="レイヤー_1-2" data-name="レイヤー 1"><path class="cls-1" d="M374.61,26.57V0l18.15,19V1.69h3.75v26.4L378.37,9.15V26.57Z"/><path class="cls-2" d="M757.19,337.76a192.78,192.78,0,0,0,22.31-90.3V232.52C779.5,125.63,692.85,39,586,39H195C88.15,39,1.5,125.63,1.5,232.52v14.94C1.5,354.34,88.15,441,195,441H586a193.3,193.3,0,0,0,62.24-10.23"/><circle class="cls-3" cx="390.5" cy="239.98" r="94.5"/><path class="cls-4" d="M346.27,228.58l-3,1.81a5.3,5.3,0,0,0-1.62-1.94,4.37,4.37,0,0,0-4.68.37,2.77,2.77,0,0,0-1,2.19c0,1.22.9,2.2,2.71,2.94l2.48,1a10.56,10.56,0,0,1,4.43,3,6.72,6.72,0,0,1,1.4,4.33,7.57,7.57,0,0,1-2.29,5.67,7.85,7.85,0,0,1-5.71,2.26,7.63,7.63,0,0,1-5.35-1.92,8.8,8.8,0,0,1-2.6-5.4l3.8-.84a6.56,6.56,0,0,0,.91,3,3.89,3.89,0,0,0,3.38,1.61,4,4,0,0,0,2.92-1.17,4.1,4.1,0,0,0,1.16-3,4,4,0,0,0-.21-1.33,3.34,3.34,0,0,0-.62-1.12,5.62,5.62,0,0,0-1.11-1,10.86,10.86,0,0,0-1.61-.84l-2.4-1c-3.4-1.44-5.11-3.55-5.11-6.32a6,6,0,0,1,2.15-4.69,7.75,7.75,0,0,1,5.33-1.9Q343.86,224.39,346.27,228.58Z"/><path class="cls-5" d="M361.61,228.4v21.35h-3.76V228.4h-5.72v-3.52h15.18v3.52Z"/><path class="cls-6" d="M388.58,243.71H377.92l-2.77,6h-4l12.31-26.44,11.87,26.44h-4.1ZM387,240.18l-3.68-8.46-3.87,8.46Z"/><path class="cls-7" d="M414.5,236.8h10.28v.82a17,17,0,0,1-.66,5,10.51,10.51,0,0,1-2.18,3.74,11.26,11.26,0,0,1-8.81,3.9,12.12,12.12,0,0,1-8.94-3.77,13,13,0,0,1,9.28-22.06,12.65,12.65,0,0,1,5.44,1.19,15.79,15.79,0,0,1,4.76,3.87L421,232a9.07,9.07,0,0,0-7.46-4.07,8.89,8.89,0,0,0-6.62,2.72,9.11,9.11,0,0,0-2.68,6.7,9.37,9.37,0,0,0,9,9.35,7.53,7.53,0,0,0,5-1.87,6.65,6.65,0,0,0,2.46-4.51h-6.2Z"/><path class="cls-8" d="M446.53,228.4h-10v6h9.69v3.53h-9.69v8.31h10v3.53H432.8V224.88h13.73Z"/><line class="cls-9" x1="33.5" y1="367.98" x2="49.5" y2="355.98"/><line class="cls-10" x1="102.2" y1="427.46" x2="112.8" y2="410.51"/><line class="cls-11" x1="33.5" y1="111.98" x2="49.5" y2="123.98"/><line class="cls-12" x1="102.2" y1="52.51" x2="112.8" y2="69.46"/><rect class="cls-13" x="79" y="117.76" width="171" height="238"/><rect class="cls-14" x="736.5" y="186.48" width="16" height="107"/><path class="cls-15" d="M108.09,246.53l5.24-26.75,8.54,19.33,8.85-19.33,4.7,26.75h-3.85l-2.4-15-7.36,16.16-7.16-16.18-2.67,15Z"/><path class="cls-16" d="M142.75,234a12.16,12.16,0,0,1,3.85-9,12.7,12.7,0,0,1,9.22-3.77,13,13,0,0,1,12.94,12.94,12.21,12.21,0,0,1-3.84,9.1,13.13,13.13,0,0,1-17.95.42A12.23,12.23,0,0,1,142.75,234Zm3.79.05a9,9,0,0,0,2.77,6.79,9.2,9.2,0,0,0,13-.05,9.65,9.65,0,0,0,0-13.34,8.75,8.75,0,0,0-6.54-2.71,8.84,8.84,0,0,0-6.56,2.71A9,9,0,0,0,146.54,234Z"/><path class="cls-17" d="M176.78,246.53V221.65H182a18.84,18.84,0,0,1,5.93.74,11.05,11.05,0,0,1,4.24,2.46,12,12,0,0,1,3.85,9.24,12.07,12.07,0,0,1-8.24,11.74,18.89,18.89,0,0,1-5.85.7Zm3.75-3.53h1.69a14.3,14.3,0,0,0,4.21-.53,8.65,8.65,0,0,0,3-1.79,8.51,8.51,0,0,0,2.77-6.59,8.64,8.64,0,0,0-2.74-6.64c-1.64-1.52-4.06-2.27-7.27-2.27h-1.69Z"/><path class="cls-18" d="M217.77,225.18h-10v6h9.69v3.53h-9.69V243h10v3.53H204V221.65h13.73Z"/><rect class="cls-19" x="403.5" y="53.26" width="192" height="17"/><rect class="cls-20" x="263.5" y="53.26" width="110" height="17"/><rect class="cls-21" x="403.5" y="410.26" width="192" height="17"/><rect class="cls-22" x="549.5" y="302.99" width="30" height="16.5"/><rect class="cls-23" x="549.5" y="286.49" width="30" height="16.5"/><rect class="cls-24" x="579.5" y="286.49" width="30" height="33"/><line class="cls-25" x1="609" y1="302.99" x2="579.5" y2="302.99"/><rect class="cls-26" x="579.5" y="223.49" width="30" height="33"/><rect class="cls-27" x="549.5" y="239.99" width="30" height="16.5"/><rect class="cls-28" x="549.5" y="223.49" width="30" height="16.5"/><line class="cls-29" x1="609" y1="239.99" x2="579.5" y2="239.99"/><rect class="cls-30" x="609.5" y="239.99" width="30" height="16.5"/><rect class="cls-31" x="549.5" y="160.48" width="60" height="33"/><line class="cls-32" x1="579.5" y1="160.48" x2="579.5" y2="193.48"/><line class="cls-33" x1="549.5" y1="176.98" x2="609" y2="176.98"/><rect class="cls-34" x="549.5" y="303.26" width="30" height="16"/><polyline class="cls-35" points="561 312.76 617.22 410.76 886 410.76"/><path class="cls-36" d="M630.09,350.54h8.78v-8h3.07v20.35h-3.07v-9.5h-8.78v9.5H627V342.58h3.08Z"/><path class="cls-36" d="M653.84,360.05h7.58v2.88H647.75l7.07-8.55c.69-.86,1.27-1.59,1.74-2.22a17.61,17.61,0,0,0,1.08-1.57,4.4,4.4,0,0,0,.75-2.23,3.2,3.2,0,0,0-1-2.38,3.46,3.46,0,0,0-2.48-1c-2.06,0-3.24,1.21-3.53,3.65h-3.06q.73-6.44,6.5-6.44a6.54,6.54,0,0,1,4.66,1.77,5.73,5.73,0,0,1,1.9,4.38,6.59,6.59,0,0,1-.88,3.25,17,17,0,0,1-1.31,2c-.58.76-1.31,1.65-2.19,2.69Z"/><path class="cls-36" d="M667.59,352.62a12.2,12.2,0,0,1,2.27-7.76,5.91,5.91,0,0,1,9.83,0,14.85,14.85,0,0,1,0,15.78,6,6,0,0,1-4.9,2.62,6.09,6.09,0,0,1-4.93-2.62C668.34,358.71,667.59,356,667.59,352.62Zm3,0a12.11,12.11,0,0,0,1.17,5.63c.78,1.46,1.78,2.2,3,2.2s2.2-.74,3-2.2a13.57,13.57,0,0,0,0-11.07c-.8-1.45-1.79-2.18-3-2.18s-2.19.73-3,2.18A11.31,11.31,0,0,0,670.61,352.64Z"/><path class="cls-36" d="M690.5,352.35a5,5,0,0,1-2.24-4.31,5.51,5.51,0,0,1,1.7-4.14,5.87,5.87,0,0,1,4.26-1.67,5.75,5.75,0,0,1,4.21,1.67,5.53,5.53,0,0,1,1.69,4.15,5.09,5.09,0,0,1-2.23,4.28,4.72,4.72,0,0,1,1.93,1.93,5.74,5.74,0,0,1,.71,2.85,5.94,5.94,0,0,1-1.77,4.43,6.18,6.18,0,0,1-4.52,1.72,6.48,6.48,0,0,1-4.65-1.74,5.76,5.76,0,0,1-1.85-4.37A4.9,4.9,0,0,1,690.5,352.35Zm.26,4.69a3.4,3.4,0,0,0,1,2.43,3.28,3.28,0,0,0,2.4,1,3.24,3.24,0,0,0,2.38-1,3.4,3.4,0,0,0,0-4.8,3.24,3.24,0,0,0-2.38-1,3.28,3.28,0,0,0-2.39,1A3.23,3.23,0,0,0,690.76,357Zm.38-9a3,3,0,0,0,.89,2.19,3,3,0,1,0,4.31-4.3,3,3,0,0,0-4.3,0A2.88,2.88,0,0,0,691.14,348Z"/><path class="cls-37" d="M564.47,318.58c-.67-.68-3.28-3.45-4.59-5s-2.7-3.47-2.7-5.91a3.62,3.62,0,0,1,3.56-3.7,3.82,3.82,0,0,1,3.75,2.86h0a3.8,3.8,0,0,1,3.76-2.86,3.62,3.62,0,0,1,3.55,3.7c0,2.44-1.33,4.25-2.7,5.91s-3.94,4.35-4.61,5Z"/><path class="cls-36" d="M624.58,378.92h6v2.17a5.9,5.9,0,0,1,5.23-2.64,7,7,0,0,1,3.52.84,5.51,5.51,0,0,1,2.25,2.59,7.35,7.35,0,0,1,6.39-3.4,7.51,7.51,0,0,1,5.23,1.76c1.8,1.72,1.93,4.23,1.93,5.57v11.77h-6v-9.45c0-1,0-2.64-.8-3.64a2.74,2.74,0,0,0-2.18-1,2.9,2.9,0,0,0-2.34,1.13,6,6,0,0,0-.92,3.68v9.29h-6v-9.72c0-1.25,0-2.72-1-3.64a2.72,2.72,0,0,0-2-.74,3,3,0,0,0-2.1.74c-1.12,1.1-1.17,3.19-1.17,3.82v9.54h-6Z"/><path class="cls-36" d="M670.08,378.92v10.33a3.93,3.93,0,0,0,1,3,3.62,3.62,0,0,0,2.51.87,3.71,3.71,0,0,0,2.56-.87,4.1,4.1,0,0,0,1-3V378.92h6V389.8c0,2.13-.21,4.14-2.09,6-2.14,2.1-5.28,2.44-7.5,2.44s-5.39-.33-7.53-2.42a7.15,7.15,0,0,1-2.05-5.62V378.92Z"/><path class="cls-36" d="M703.53,383.69a6.87,6.87,0,0,0-3.31-1.05,2.6,2.6,0,0,0-1.72.54,1.33,1.33,0,0,0-.38.83,1,1,0,0,0,.59.84,11.29,11.29,0,0,0,1.8.63l1.59.5a8,8,0,0,1,3.1,1.64,4.49,4.49,0,0,1,1.5,3.56,6.8,6.8,0,0,1-1.93,4.89,8.16,8.16,0,0,1-6.1,2.15,11.06,11.06,0,0,1-7.66-2.68l2.55-4.05a10.79,10.79,0,0,0,2,1.37,5.74,5.74,0,0,0,2.51.58A3.32,3.32,0,0,0,700,393a1.54,1.54,0,0,0,.63-1.21,1.24,1.24,0,0,0-.66-1.09,7.74,7.74,0,0,0-1.85-.67l-1.5-.46a7.49,7.49,0,0,1-3-1.72,4.6,4.6,0,0,1-1.33-3.38,5.82,5.82,0,0,1,1.81-4.32,8.25,8.25,0,0,1,5.65-1.88,11.81,11.81,0,0,1,6.2,1.59Z"/><path class="cls-36" d="M720.47,378.92v10.33a4,4,0,0,0,1,3,3.59,3.59,0,0,0,2.51.87,3.74,3.74,0,0,0,2.56-.87,4.08,4.08,0,0,0,1-3V378.92h6V389.8c0,2.13-.21,4.14-2.09,6-2.14,2.09-5.28,2.42-7.48,2.42s-5.39-.33-7.53-2.42a7.17,7.17,0,0,1-2-5.61V378.92Z"/><path class="cls-36" d="M748.66,367.07V381a7,7,0,0,1,5.82-2.72,9.39,9.39,0,0,1,6.48,2.52,9.89,9.89,0,0,1,2.93,7.36,10.4,10.4,0,0,1-2.93,7.47,8.35,8.35,0,0,1-6.36,2.57,6.63,6.63,0,0,1-5.91-2.89v2.24h-6v-30.5Zm1,17.79a4.79,4.79,0,0,0-1.33,3.43,4.53,4.53,0,0,0,1.37,3.35A5.17,5.17,0,0,0,753.1,393a4.61,4.61,0,0,0,3.14-1.3,4.7,4.7,0,0,0,1.49-3.43,4.73,4.73,0,0,0-8.11-3.43Z"/><path class="cls-36" d="M775.31,367.44A3.52,3.52,0,1,1,771.8,371h0a3.49,3.49,0,0,1,3.46-3.52Zm3,11.48V397.6h-6V378.92Z"/><path class="cls-36" d="M801.93,378.92h6V397.6h-6v-2.24a6.21,6.21,0,0,1-5.52,2.86,8.87,8.87,0,0,1-7-2.84,9.9,9.9,0,0,1-2.72-7,10.58,10.58,0,0,1,2.89-7.53,9,9,0,0,1,6.48-2.55,7,7,0,0,1,5.86,2.72Zm-7.67,5.89a4.68,4.68,0,0,0-1.39,3.4,4.69,4.69,0,0,0,4.82,4.84,4.44,4.44,0,0,0,3.14-1.3,5,5,0,0,0,.09-6.94,5.05,5.05,0,0,0-3.35-1.3A4.78,4.78,0,0,0,794.26,384.81Z"/><path class="cls-36" d="M820.27,367.44a3.52,3.52,0,1,1-3.52,3.52h0a3.49,3.49,0,0,1,3.46-3.52Zm3,11.48V397.6h-6V378.92Z"/><path class="cls-36" d="M856.15,397.57H840.9l6-6.52a46.94,46.94,0,0,0,3.26-4.05,6.7,6.7,0,0,0,1.2-3.37,2.85,2.85,0,0,0-.75-2,2.79,2.79,0,0,0-1.83-.57,2.37,2.37,0,0,0-1.82.75,4.12,4.12,0,0,0-.84,2.45h-4.6a8.55,8.55,0,0,1,2.06-5,7.21,7.21,0,0,1,5.5-2.06,7.07,7.07,0,0,1,5.18,1.88,6.65,6.65,0,0,1,1.85,4.79,7.12,7.12,0,0,1-1.49,4.39,26,26,0,0,1-3.2,3.43l-2.1,2h6.88Z"/><path class="cls-36" d="M862,392.6a2.72,2.72,0,1,1-2.69,2.75v0A2.69,2.69,0,0,1,862,392.6Z"/><path class="cls-36" d="M880.13,396a7.41,7.41,0,0,1-5.35,2.07,7.29,7.29,0,0,1-5.29-2.07c-2-1.91-2.88-4.92-2.88-8.33s.93-6.49,2.88-8.37a7.29,7.29,0,0,1,5.29-2.07,7.45,7.45,0,0,1,5.35,2.07c1.94,1.88,2.87,4.93,2.87,8.37S882.07,394,880.13,396ZM873,381.9c-1.49,1.43-1.67,4.3-1.67,5.71s.27,4.36,1.67,5.73a2.67,2.67,0,0,0,3.74,0c1.41-1.37,1.68-4.18,1.68-5.73s-.21-4.28-1.68-5.71A2.69,2.69,0,0,0,873,381.9Z"/></g></g></svg>